<svg
    viewBox="0 0 200 200"
    fill="none"
    xmlns="http://www.w3.org/2000/svg">
    <path
        d="M50 100H41.8626C19.6805 100 6.44967 107.969 2.16998 123.906C0.723324 129.154 0 135.17 0 141.955V150H50V125L50 100Z"
        fill="#111" />
    <path
        d="M50 100H58.1374C80.3195 100 93.5503 107.969 97.83 123.906C99.2767 129.154 100 135.17 100 141.955V150H50V125L50 100Z"
        fill="#111" />
    <path
        d="M100 100H108.137C130.319 100 143.55 107.969 147.83 123.906C149.277 129.154 150 135.17 150 141.955V150H100L100 125V100Z"
        fill="#111" />
    <path
        d="M200 100H191.863C169.681 100 156.45 107.969 152.17 123.906C150.723 129.154 150 135.17 150 141.955V150H200V125V100Z"
        fill="#111" />
    <path
        d="M150 150H141.863C119.681 150 106.45 157.969 102.17 173.906C100.723 179.154 100 185.17 100 191.955V200H150V175V150Z"
        fill="#111" />
    <path
        d="M100 50L100 58.1374C100 80.3195 92.0315 93.5503 76.0945 97.83C70.8461 99.2767 64.8298 100 58.0454 100L50 100L50 50L74.9999 50L100 50Z"
        fill="#111" />
    <path
        d="M25 150L25 158.137C25 180.319 32.9685 193.55 48.9055 197.83C54.1539 199.277 60.1702 200 66.9547 200L75 200L75 150L50.0001 150L25 150Z"
        fill="#111" />
    <path
        d="M200 150L200 158.137C200 180.319 192.031 193.55 176.094 197.83C170.846 199.277 164.83 200 158.045 200L150 200L150 150L175 150L200 150Z"
        fill="#111" />
    <path
        d="M200 50L200 58.1374C200 80.3195 192.031 93.5503 176.094 97.83C170.846 99.2767 164.83 100 158.045 100L150 100L150 50L175 50L200 50Z"
        fill="#111" />
    <path
        d="M0 100L-3.55698e-07 91.8626C-1.32531e-06 69.6805 7.96851 56.4497 23.9055 52.17C29.1539 50.7233 35.1702 50 41.9546 50L50 50L50 100L25.0001 100L0 100Z"
        fill="#111" />
    <path
        d="M100 50L100 41.8626C100 19.6805 92.0315 6.44967 76.0945 2.16998C70.8461 0.723323 64.8298 -1.53734e-06 58.0454 -1.8339e-06L50 -2.18557e-06L50 50L74.9999 50L100 50Z"
        fill="#111" />
    <path
        d="M200 50L200 41.8626C200 19.6805 192.031 6.44967 176.094 2.16998C170.846 0.723323 164.83 -1.53734e-06 158.045 -1.8339e-06L150 -2.18557e-06L150 50L175 50L200 50Z"
        fill="#111" />
    <path
        d="M0 50L-3.55698e-07 41.8626C-1.32531e-06 19.6805 7.96851 6.44967 23.9055 2.16998C29.1539 0.723323 35.1702 -1.53734e-06 41.9546 -1.8339e-06L50 -2.18557e-06L50 50L25.0001 50L0 50Z"
        fill="#111" />
    <rect x="100" width="50" height="50" fill="#111" />
    <rect x="100" y="50" width="50" height="50" fill="#111" />
</svg>