<svg width="397" height="397" viewBox="0 0 397 397" fill="none" xmlns="http://www.w3.org/2000/svg">
<path d="M99.25 198.5H83.0972C39.0659 198.5 12.8026 214.318 4.30741 245.953C1.4358 256.37 7.06062e-07 268.313 7.06062e-07 281.78V297.75H99.25V198.5Z" fill="white"/>
<path d="M99.25 198.5H115.403C159.434 198.5 185.697 214.318 194.193 245.953C197.064 256.37 198.5 268.313 198.5 281.78V297.75H99.25V198.5Z" fill="white"/>
<path d="M198.5 198.5H214.653C258.684 198.5 284.947 214.318 293.443 245.953C296.314 256.37 297.75 268.313 297.75 281.78V297.75H198.5V198.5Z" fill="white"/>
<path d="M397 198.5H380.847C336.816 198.5 310.553 214.318 302.057 245.953C299.186 256.37 297.75 268.313 297.75 281.78V297.75H397V198.5Z" fill="white"/>
<path d="M297.75 297.75H281.597C237.566 297.75 211.303 313.568 202.807 345.202C199.936 355.62 198.5 367.563 198.5 381.03V397H297.75V297.75Z" fill="white"/>
<path d="M198.5 99.25V115.403C198.5 159.434 182.683 185.697 151.048 194.193C140.63 197.064 128.687 198.5 115.22 198.5L99.25 198.5V99.25H198.5Z" fill="white"/>
<path d="M49.625 297.75V313.903C49.625 357.934 65.4425 384.197 97.0775 392.693C107.495 395.564 119.438 397 132.905 397H148.875V297.75H99.25H49.625Z" fill="white"/>
<path d="M397 297.75V313.903C397 357.934 381.183 384.197 349.548 392.693C339.13 395.564 327.187 397 313.72 397H297.75V297.75H397Z" fill="white"/>
<path d="M397 99.25V115.403C397 159.434 381.183 185.697 349.548 194.193C339.13 197.064 327.187 198.5 313.72 198.5H297.75V99.25H397Z" fill="white"/>
<path d="M7.06062e-07 198.5L0 182.347C-1.92467e-06 138.316 15.8175 112.053 47.4525 103.557C57.8704 100.686 69.8129 99.25 83.28 99.25L99.25 99.25V198.5H7.06062e-07Z" fill="white"/>
<path d="M198.5 99.25V83.0972C198.5 39.0659 182.683 12.8026 151.048 4.30741C140.63 1.4358 128.687 1.28674e-06 115.22 6.98072e-07L99.25 0L99.25 99.25H198.5Z" fill="white"/>
<path d="M397 99.25V83.0972C397 39.0659 381.183 12.8026 349.548 4.30741C339.13 1.4358 327.187 1.28674e-06 313.72 6.98072e-07L297.75 0V99.25H397Z" fill="white"/>
<path d="M7.06062e-07 99.25L0 83.0972C-1.92467e-06 39.0659 15.8175 12.8026 47.4525 4.30741C57.8704 1.4358 69.8129 1.28674e-06 83.28 6.98072e-07L99.25 0L99.25 99.25H7.06062e-07Z" fill="white"/>
<path d="M198.5 4.33836e-06L297.75 0V198.5L198.5 198.5V4.33836e-06Z" fill="white"/>
</svg>
